<svg  version="1.1" width="1280" height="1024"
        viewBox="0 0 1280 1024"
     baseProfile="full"
     xmlns="http://www.w3.org/2000/svg"
     xmlns:xlink="http://www.w3.org/1999/xlink"
     xmlns:ev="http://www.w3.org/2001/xml-events">
	<symbol viewBox="0 0 16 16" id="ingress">
		<polygon fill="currentColor" points="0 7 7.01 7 7.01 4.06 10.96 8.01 7.01 11.91 7.01 9.06 0 9.02 0 7"/>
		<polygon fill="currentColor" points="7.01 0 7.01 2 14.03 2 14.03 13.99 7.01 13.99 7.01 16 16 16 16 0 7.01 0"/>
	</symbol>
	<symbol viewBox="0 0 26.14 14.91" id="icon-vkontakte">
		<path fill="currentColor" d="M26 13.47l-.09-.17a13.55 13.55 0 0 0-2.6-3q-.87-.83-1.1-1.12A1 1 0 0 1 22 8a10.27 10.27 0 0 1 1.22-1.78l.88-1.16q2.35-3.13 2-4L26 .94a.8.8 0 0 0-.4-.22 2.14 2.14 0 0 0-.87 0h-3.92a.51.51 0 0 0-.27 0h-.3a.6.6 0 0 0-.15.14.93.93 0 0 0-.14.24 22.22 22.22 0 0 1-1.46 3.06q-.5.84-.93 1.46a7 7 0 0 1-.71.91 4.94 4.94 0 0 1-.52.47q-.23.18-.35.15l-.23-.05a.9.9 0 0 1-.31-.33 1.49 1.49 0 0 1-.16-.53V1.6a3.14 3.14 0 0 0 0-.62 2.12 2.12 0 0 0-.14-.44.73.73 0 0 0-.28-.33 1.57 1.57 0 0 0-.46-.18A9 9 0 0 0 12.57 0a8.93 8.93 0 0 0-3.25.33 1.83 1.83 0 0 0-.52.41q-.25.3-.07.33a1.67 1.67 0 0 1 1.16.59l.08.16a2.6 2.6 0 0 1 .19.63 6.32 6.32 0 0 1 .12 1 10.59 10.59 0 0 1 0 1.7q-.07.71-.13 1.1a2.21 2.21 0 0 1-.18.64 2.69 2.69 0 0 1-.16.3l-.07.07a1 1 0 0 1-.37.07.86.86 0 0 1-.46-.19 3.27 3.27 0 0 1-.56-.52 7 7 0 0 1-.66-.93q-.37-.6-.76-1.42l-.22-.39q-.2-.38-.56-1.11t-.62-1.43A.9.9 0 0 0 5.2.9h-.07a.93.93 0 0 0-.22-.16A1.44 1.44 0 0 0 4.6.65L.87.68A1 1 0 0 0 .1.94L0 1a.44.44 0 0 0 0 .22 1.08 1.08 0 0 0 .08.37Q.9 3.53 1.86 5.31t1.66 2.87Q4.23 9.27 5 10.24t1 1.24l.37.41.34.33a8.06 8.06 0 0 0 1 .78 16.34 16.34 0 0 0 1.4.9 7.6 7.6 0 0 0 1.79.72 6.19 6.19 0 0 0 2 .22h1.57a1.08 1.08 0 0 0 .72-.3l.05-.07a.9.9 0 0 0 .1-.25 1.38 1.38 0 0 0 0-.37 4.48 4.48 0 0 1 .09-1.05 2.77 2.77 0 0 1 .23-.71 1.74 1.74 0 0 1 .29-.4 1.19 1.19 0 0 1 .23-.2h.11a.86.86 0 0 1 .77.21 4.52 4.52 0 0 1 .83.79q.39.47.93 1.05a6.41 6.41 0 0 0 1 .87l.27.16a3.31 3.31 0 0 0 .71.3 1.53 1.53 0 0 0 .76.07l3.48-.05a1.58 1.58 0 0 0 .8-.17.68.68 0 0 0 .34-.37 1.06 1.06 0 0 0 0-.46 1.71 1.71 0 0 0-.1-.36z"/>
	</symbol>
	<symbol viewBox="0 0 10.15 21.74" id="icon-facebook">
		<path fill="currentColor" d="M3.34 1.12A4.77 4.77 0 0 1 6.53 0h3.61v3.81H7.81a1.07 1.07 0 0 0-1.09.83v2.55h3.42c-.08 1.23-.24 2.45-.41 3.67h-3v10.87H2.21V10.86H0V7.21h2.19V3.66a3.83 3.83 0 0 1 1.15-2.54z"/>
	</symbol>
	<symbol viewBox="0 0 512 512" id="icon-instagram">
		<path fill="currentColor" d="M480 0H32C14.3 0 0 14.3 0 32v448c0 17.7 14.3 32 32 32h448c17.7 0 32-14.3 32-32V32c0-17.7-14.3-32-32-32zM192 256s5.1-64 64-64 64 64 64 64 1.8 64-64 64-64-64-64-64zm256 192H64V224h68.5c-2.7 10.3-4.5 20.9-4.5 32 0 70.7 57.3 128 128 128s128-57.3 128-128c0-11.1-1.9-21.7-4.5-32H448v224zm0-288h-96V64h96v96z"/>
	</symbol>
	<symbol viewBox="0 0 45 47" id="icon-google">
		<path fill="currentColor" d="M 17.1875 10.9375 C 9.421875 10.9375 3.125 17.234375 3.125 25 C 3.125 32.765625 9.421875 39.0625 17.1875 39.0625 C 24.953125 39.0625 31.25 32.765625 31.25 25 C 31.25 24.035156 31.144531 23.09375 30.960938 22.1875 L 30.882813 21.875 L 17.1875 21.875 L 17.1875 26.5625 L 26.5625 26.5625 C 25.816406 30.996094 21.832031 34.375 17.1875 34.375 C 12.007813 34.375 7.8125 30.179688 7.8125 25 C 7.8125 19.820313 12.007813 15.625 17.1875 15.625 C 19.53125 15.625 21.667969 16.492188 23.3125 17.914063 L 26.671875 14.625 C 24.171875 12.335938 20.84375 10.9375 17.1875 10.9375 Z M 39.0625 17.1875 L 39.0625 21.875 L 34.375 21.875 L 34.375 25 L 39.0625 25 L 39.0625 29.6875 L 42.1875 29.6875 L 42.1875 25 L 46.875 25 L 46.875 21.875 L 42.1875 21.875 L 42.1875 17.1875 Z "/>
	</symbol>
	<symbol viewBox="0 0 46 46" id="icon-twitter"> 
		<path fill="currentColor" d="M 50.0625 10.4375 C 48.214844 11.257813 46.234375 11.808594 44.152344 12.058594 C 46.277344 10.785156 47.910156 8.769531 48.675781 6.371094 C 46.691406 7.546875 44.484375 8.402344 42.144531 8.863281 C 40.269531 6.863281 37.597656 5.617188 34.640625 5.617188 C 28.960938 5.617188 24.355469 10.21875 24.355469 15.898438 C 24.355469 16.703125 24.449219 17.488281 24.625 18.242188 C 16.078125 17.8125 8.503906 13.71875 3.429688 7.496094 C 2.542969 9.019531 2.039063 10.785156 2.039063 12.667969 C 2.039063 16.234375 3.851563 19.382813 6.613281 21.230469 C 4.925781 21.175781 3.339844 20.710938 1.953125 19.941406 C 1.953125 19.984375 1.953125 20.027344 1.953125 20.070313 C 1.953125 25.054688 5.5 29.207031 10.199219 30.15625 C 9.339844 30.390625 8.429688 30.515625 7.492188 30.515625 C 6.828125 30.515625 6.183594 30.453125 5.554688 30.328125 C 6.867188 34.410156 10.664063 37.390625 15.160156 37.472656 C 11.644531 40.230469 7.210938 41.871094 2.390625 41.871094 C 1.558594 41.871094 0.742188 41.824219 -0.0585938 41.726563 C 4.488281 44.648438 9.894531 46.347656 15.703125 46.347656 C 34.617188 46.347656 44.960938 30.679688 44.960938 17.09375 C 44.960938 16.648438 44.949219 16.199219 44.933594 15.761719 C 46.941406 14.3125 48.683594 12.5 50.0625 10.4375 Z "/>
	</symbol>
	<symbol  viewBox="0 0 525.153 525.153" id="icon-star"> 
		<path fill="currentColor" d="M262.576,414.028l162.272,97.963L381.786,327.4l143.367-124.199l-188.77-15.995L262.576,13.162L188.77,187.206L0,203.201
		L143.367,327.4l-43.062,184.591L262.576,414.028z"/>
	</symbol>
		<symbol viewBox="0 0 485.213 485.212" id="icon-clock">
		<path fill="currentColor" d="M242.607,0C108.629,0,0.001,108.628,0.001,242.606c0,133.976,108.628,242.606,242.606,242.606
		c133.978,0,242.604-108.631,242.604-242.606C485.212,108.628,376.585,0,242.607,0z M257.771,454.116v-29.557h-30.327v29.557
		c-104.925-7.458-188.883-91.419-196.346-196.344h29.554v-30.327H31.098c7.463-104.928,91.421-188.886,196.346-196.349v29.554
		h30.327V31.097c104.926,7.462,188.882,91.421,196.344,196.349h-29.552v30.327h29.552
		C446.652,362.697,362.696,446.658,257.771,454.116z M354.226,178.163c2.072,3.615,0.83,8.266-2.782,10.368l-80.092,46.227
		c0.691,2.577,1.582,5.066,1.582,7.848c0,16.762-13.581,30.324-30.326,30.324c-16.75,0-30.327-13.562-30.327-30.324l-82.299-47.503
		c-7.257-4.203-9.743-13.474-5.554-20.729c4.174-7.285,13.459-9.771,20.715-5.565l82.775,47.798
		c4.411-2.487,9.239-4.324,14.69-4.324c8.471,0,16.092,3.494,21.604,9.122l79.648-46.024
		C347.416,173.277,352.064,174.521,354.226,178.163z"/>
	</symbol>
		<symbol  viewBox="0 0 95 95" id="icon-eye"> 
			<path fill="currentColor" d="M47.5,20.9C16.337,20.9,0,43.86,0,47.5c0,3.641,16.337,26.6,47.5,26.6
			C78.661,74.1,95,51.141,95,47.5C95,43.86,78.661,20.9,47.5,20.9z M47.5,67.962c-11.659,0-21.112-9.161-21.112-20.462
			S35.841,27.038,47.5,27.038S68.611,36.199,68.611,47.5S59.159,67.962,47.5,67.962z M58.055,47.5c0,5.65-4.727,10.232-10.555,10.232
			c-5.83,0-10.555-4.582-10.555-10.232S41.67,37.269,47.5,37.269c3.15,0-1.933,8.108,0,10.231
			C49.143,49.303,58.055,44.905,58.055,47.5z"/>
	</symbol>
	 <symbol  viewBox="0 0 493.356 493.356" id="icon-arrow"> 
		<path fill="currentColor" d="M490.498,239.278l-109.632-99.929c-3.046-2.474-6.376-2.95-9.993-1.427c-3.613,1.525-5.427,4.283-5.427,8.282v63.954H9.136
			c-2.666,0-4.856,0.855-6.567,2.568C0.859,214.438,0,216.628,0,219.292v54.816c0,2.663,0.855,4.853,2.568,6.563
			c1.715,1.712,3.905,2.567,6.567,2.567h356.313v63.953c0,3.812,1.817,6.57,5.428,8.278c3.62,1.529,6.95,0.951,9.996-1.708
			l109.632-101.077c1.903-1.902,2.852-4.182,2.852-6.849C493.356,243.367,492.401,241.181,490.498,239.278z"/>
	</symbol>
		<symbol  viewBox="0 0 532.745 532.745" id="icon-pesok-clock"> 
		<path fill="currentColor" d="M435.882,0H96.863v169.51l96.863,96.863l-96.863,96.863v169.51h339.02v-169.51l-96.863-96.863l96.863-96.863V0z
				M411.667,159.485l-89.768,89.768l-17.12,17.12l17.12,17.12l89.768,89.768v135.269H121.078V373.261l89.768-89.768l17.12-17.12
				l-17.12-17.12l-89.768-89.768V24.216h290.588V159.485z"/>
		<polygon points="387.451,145.294 387.451,96.863 145.294,96.863 145.294,145.294 266.373,266.373 		"/>
		<polygon points="145.294,484.314 387.451,484.314 387.451,460.098 266.373,411.667 145.294,460.098 		"/>
	</symbol>
		<symbol  viewBox="0 0 512 512" id="icon--dollar"> 
			<path fill="currentColor" d="M256,0C114.625,0,0,114.625,0,256s114.625,256,256,256c141.406,0,256-114.625,256-256S397.406,0,256,0z M325.812,354.844
				c-12.594,14.125-30.78,22.438-54.562,24.938V416h-30.313v-36.031c-39.656-4.062-64.188-27.125-73.656-69.125l46.875-12.219
				c4.344,26.406,18.719,39.594,43.125,39.594c11.406,0,19.844-2.812,25.219-8.469s8.062-12.469,8.062-20.469
				c0-8.281-2.688-14.563-8.062-18.813c-5.375-4.28-17.344-9.688-35.875-16.25c-16.656-5.78-29.688-11.469-39.063-17.155
				c-9.375-5.625-17-13.531-22.844-23.688c-5.844-10.188-8.781-22.063-8.781-35.563c0-17.719,5.25-33.688,15.688-47.875
				c10.438-14.156,26.875-22.813,49.313-25.969V96h30.313v27.969c33.875,4.063,55.813,23.219,65.781,57.5l-41.75,17.125
				c-8.156-23.5-20.72-35.25-37.781-35.25c-8.563,0-15.438,2.625-20.594,7.875c-5.188,5.25-7.781,11.625-7.781,19.094
				c0,7.625,2.5,13.469,7.5,17.563c4.969,4.063,15.688,9.094,32.063,15.125c18,6.563,32.125,12.781,42.344,18.625
				c10.25,5.844,18.406,13.938,24.531,24.219c6.094,10.313,9.155,22.345,9.155,36.126C344.719,323.125,338.406,340.75,325.812,354.844
				z"/>
	</symbol>
	<symbol  viewBox="0 0 60 60" id="icon--money"> 
		<path fill="#D8BC48" d="M25,31H9c-0.55225,0-1,0.44775-1,1v3c0,2.62598,4.52734,4,9,4s9-1.37402,9-4v-3
			C26,31.44775,25.55225,31,25,31z"/>
		<path fill="#EFD358" d="M17,28c-4.47266,0-9,1.37402-9,4s4.52734,4,9,4s9-1.37402,9-4S21.47266,28,17,28z"/>
		<path fill="#D8BC48" d="M25,26H9c-0.55225,0-1,0.44775-1,1v3c0,2.62598,4.52734,4,9,4s9-1.37402,9-4v-3
			C26,26.44775,25.55225,26,25,26z"/>
		<path fill="#EFD358" d="M17,23c-4.47266,0-9,1.37402-9,4s4.52734,4,9,4s9-1.37402,9-4S21.47266,23,17,23z"/>
		<path fill="#D8BC48" d="M25,21H9c-0.55225,0-1,0.44775-1,1v3c0,2.62598,4.52734,4,9,4s9-1.37402,9-4v-3
			C26,21.44775,25.55225,21,25,21z"/>
		<path fill="#EFD358" d="M17,18c-4.47266,0-9,1.37402-9,4s4.52734,4,9,4s9-1.37402,9-4S21.47266,18,17,18z"/>
		<path fill="#D8BC48" d="M25,16H9c-0.55225,0-1,0.44775-1,1v3c0,2.62598,4.52734,4,9,4s9-1.37402,9-4v-3
			C26,16.44775,25.55225,16,25,16z"/>
		<path fill="#EFD358" d="M17,13c-4.47266,0-9,1.37402-9,4s4.52734,4,9,4s9-1.37402,9-4S21.47266,13,17,13z"/>
		<path fill="#D8BC48" d="M25,11H9c-0.55225,0-1,0.44775-1,1v3c0,2.62598,4.52734,4,9,4s9-1.37402,9-4v-3
			C26,11.44775,25.55225,11,25,11z"/>
		<path fill="#EFD358" d="M17,8c-4.47266,0-9,1.37402-9,4s4.52734,4,9,4s9-1.37402,9-4S21.47266,8,17,8z"/>
		<path fill="#D8BC48" d="M25,6H9C8.44775,6,8,6.44775,8,7v3c0,2.62598,4.52734,4,9,4s9-1.37402,9-4V7C26,6.44775,25.55225,6,25,6z"/>
		<path fill="#EFD358" d="M17,3c-4.47266,0-9,1.37402-9,4s4.52734,4,9,4s9-1.37402,9-4S21.47266,3,17,3z"/>
		<path opacity="0.1" d="M26,7.56305C22.60016,8.39185,20,10.1571,20,13v3c0,0.33789,0.0415,0.67236,0.12354,1
			C20.0415,17.32764,20,17.66211,20,18v3c0,0.33789,0.0415,0.67236,0.12354,1C20.0415,22.32764,20,22.66211,20,23v3
			c0,0.33789,0.0415,0.67236,0.12354,1C20.0415,27.32764,20,27.66211,20,28v3c0,0.33789,0.0415,0.67236,0.12354,1
			C20.0415,32.32764,20,32.66211,20,33v3c0,0.33789,0.0415,0.67236,0.12354,1C20.0415,37.32764,20,37.66211,20,38v0.7851
			c3.29321-0.47754,6-1.75562,6-3.7851v-3c0-0.35736-0.09039-0.68933-0.24652-1C25.90961,30.68933,26,30.35736,26,30v-3
			c0-0.35736-0.09039-0.68933-0.24652-1C25.90961,25.68933,26,25.35736,26,25v-3c0-0.35736-0.09039-0.68933-0.24652-1
			C25.90961,20.68933,26,20.35736,26,20v-3c0-0.35736-0.09039-0.68933-0.24652-1C25.90961,15.68933,26,15.35736,26,15v-3
			c0-0.35736-0.09039-0.68933-0.24652-1C25.90961,10.68933,26,10.35736,26,10V7.56305z"/>
		<path fill="#D8BC48" d="M39,37H23c-0.55225,0-1,0.44775-1,1v3c0,2.62598,4.52734,4,9,4s9-1.37402,9-4v-3
			C40,37.44775,39.55225,37,39,37z"/>
		<path fill="#EFD358" d="M31,34c-4.47266,0-9,1.37402-9,4s4.52734,4,9,4s9-1.37402,9-4S35.47266,34,31,34z"/>
		<path fill="#D8BC48" d="M39,32H23c-0.55225,0-1,0.44775-1,1v3c0,2.62598,4.52734,4,9,4s9-1.37402,9-4v-3
			C40,32.44775,39.55225,32,39,32z"/>
		<path fill="#EFD358" d="M31,29c-4.47266,0-9,1.37402-9,4s4.52734,4,9,4s9-1.37402,9-4S35.47266,29,31,29z"/>
		<path fill="#D8BC48" d="M39,27H23c-0.55225,0-1,0.44775-1,1v3c0,2.62598,4.52734,4,9,4s9-1.37402,9-4v-3
			C40,27.44775,39.55225,27,39,27z"/>
		<path fill="#EFD358" d="M31,24c-4.47266,0-9,1.37402-9,4s4.52734,4,9,4s9-1.37402,9-4S35.47266,24,31,24z"/>
		<path fill="#D8BC48" d="M39,22H23c-0.55225,0-1,0.44775-1,1v3c0,2.62598,4.52734,4,9,4s9-1.37402,9-4v-3
			C40,22.44775,39.55225,22,39,22z"/>
		<path fill="#EFD358" d="M31,19c-4.47266,0-9,1.37402-9,4s4.52734,4,9,4s9-1.37402,9-4S35.47266,19,31,19z"/>
		<path fill="#D8BC48" d="M39,17H23c-0.55225,0-1,0.44775-1,1v3c0,2.62598,4.52734,4,9,4s9-1.37402,9-4v-3
			C40,17.44775,39.55225,17,39,17z"/>
		<path fill="#EFD358" d="M31,14c-4.47266,0-9,1.37402-9,4s4.52734,4,9,4s9-1.37402,9-4S35.47266,14,31,14z"/>
		<path fill="#D8BC48" d="M39,12H23c-0.55225,0-1,0.44775-1,1v3c0,2.62598,4.52734,4,9,4s9-1.37402,9-4v-3
			C40,12.44775,39.55225,12,39,12z"/>
		<path fill="#EFD358" d="M31,9c-4.47266,0-9,1.37402-9,4s4.52734,4,9,4s9-1.37402,9-4S35.47266,9,31,9z"/>
	</symbol>
	<symbol  viewBox="0 0 24 24" id="icon--circle">
		<path fill="#303C42" d="M12,0C5.3833008,0,0,5.3833008,0,12s5.3833008,12,12,12s12-5.3833008,12-12S18.6166992,0,12,0z"/>
		<path fill="#F78F1E" d="M22.9746704,11.5H12.5V1.0253296C18.1657104,1.2818604,22.7181396,5.8342896,22.9746704,11.5z"/>
		<path fill="#3D82C4" d="M1,12C1,6.1033325,5.6673584,1.2894287,11.5,1.0253296V12
		c0,0.1328125,0.0527344,0.2597656,0.1464844,0.3535156l7.7576904,7.7576904C17.4474487,21.8989868,14.8530884,23,12,23
		C5.9345703,23,1,18.0654297,1,12z"/>
		<path fill="#FFCB29" d="M20.1112061,19.4041748L13.2070313,12.5h9.7676392
		C22.8544312,15.1551514,21.7932129,17.5631714,20.1112061,19.4041748z"/>
	</symbol>
	<symbol viewBox="0 0 32 32" id="icon--page">
		<path fill="currentColor" d="M24,14.059V5.584L18.414,0H0v32h24v-0.059c4.499-0.5,7.998-4.31,8-8.941
			C31.998,18.366,28.499,14.556,24,14.059z M17.998,2.413L21.586,6h-3.588C17.998,6,17.998,2.413,17.998,2.413z M2,30V1.998h14
			v6.001h6v6.06c-1.752,0.194-3.352,0.89-4.652,1.941H4v2h11.517c-0.412,0.616-0.743,1.289-0.994,2H4v2h10.059
			C14.022,22.329,14,22.661,14,23c0,2.829,1.308,5.352,3.35,7H2z M23,29.883c-3.801-0.009-6.876-3.084-6.885-6.883
			c0.009-3.801,3.084-6.876,6.885-6.885c3.799,0.009,6.874,3.084,6.883,6.885C29.874,26.799,26.799,29.874,23,29.883z"/>
	<rect x="4" y="12" style="fill:#010002;" width="16" height="2"/>
		<polygon style="fill:#010002;" points="24.002,22 24.002,18 22,18 22,22 18,22 18,24 22,24 22,28 24.002,28 24.002,24 28,24 
			28,22 		"/>
	</symbol>
	<symbol viewBox="0 0 512 512" id="icon--bong">
	<path fill="currentColor" d="M512,112c0,29.938-11.906,57-31.062,77.094c-27.156-73.406-89.063-129.875-165.813-149.406C335.656,15.594,365.844,0,400,0
			C461.875,0,512,50.125,512,112z M196.859,39.688C176.328,15.594,146.141,0,112,0C50.141,0,0,50.125,0,112
			c0,29.938,11.922,57,31.063,77.094C58.219,115.688,120.141,59.219,196.859,39.688z M464,272c0,50.531-18.031,96.812-48,132.875V464
			c0,26.5-21.5,48-48,48c-24.562,0-44.594-18.531-47.438-42.344c-20.345,6.656-42,10.344-64.563,10.344
			c-22.563,0-44.234-3.688-64.563-10.344C188.594,493.469,168.563,512,144,512c-26.5,0-48-21.5-48-48v-59.125
			C66.047,368.812,48,322.531,48,272c0-114.875,93.125-208,208-208S464,157.125,464,272z M432,272c0-97.063-78.969-176-176-176
			c-97.047,0-176,78.938-176,176c0,97.031,78.953,176,176,176C353.031,448,432,369.031,432,272z M272,128h-32v144
			c0,2.812,0.734,5.562,2.141,8l64.016,110.844l27.688-16L272,267.719V128z"/>
	</symbol>
	</svg>